<?xml version="1.0" encoding="UTF-8"?>
<svg version="1.1" xmlns="http://www.w3.org/2000/svg" width="303" height="391">
<path d="M0 0 C99.99 0 199.98 0 303 0 C303 129.03 303 258.06 303 391 C203.01 391 103.02 391 0 391 C0 261.97 0 132.94 0 0 Z " fill="#E9E9E9" transform="translate(0,0)"/>
<path d="M0 0 C3.06713244 1.36242426 5.11840293 2.89699705 7.4375 5.3125 C8.04851562 5.94027344 8.65953125 6.56804688 9.2890625 7.21484375 C9.85367188 7.80394531 10.41828125 8.39304687 11 9 C14.00369326 12.08487416 17.10296203 15.00781275 20.3125 17.875 C24.87525217 21.95567568 29.35305864 26.11930184 33.8125 30.3125 C40.3270148 36.43670913 46.87038664 42.5273251 53.453125 48.578125 C55.02167381 50.01992239 56.58895137 51.46309384 58.15625 52.90625 C59.18739061 53.85428566 60.21863652 54.80220681 61.25 55.75 C62.62423561 57.01302579 63.99801832 58.27668341 65.35634708 59.55680084 C67.04943342 61.08903408 67.04943342 61.08903408 69.23037624 62.61379242 C75.4984858 67.41852158 75.4984858 67.41852158 76.81826973 71.58033752 C77.10513943 74.60690684 77.1148501 77.51779898 77.02172852 80.55664062 C77.02304276 81.68922302 77.02435699 82.82180542 77.02571106 83.9887085 C77.01946666 87.71283016 76.94959099 91.43284127 76.87890625 95.15625 C76.86211088 97.74554226 76.8493041 100.3348632 76.84031677 102.92419434 C76.80952675 109.03041255 76.73868677 115.1349476 76.64817137 121.24053335 C76.54731649 128.195639 76.49802682 135.15081726 76.45291245 142.10647297 C76.35902341 156.40522801 76.19408243 170.70226224 76 185 C61.48 185 46.96 185 32 185 C31.93941406 180.00488281 31.87882812 175.00976562 31.81640625 169.86328125 C31.77590414 166.69595508 31.73512693 163.52863724 31.69335938 160.36132812 C31.62711251 155.3357225 31.56187611 150.31011816 31.50268555 145.28442383 C31.45489318 141.23193137 31.40254548 137.17952086 31.34705925 133.12712669 C31.32670294 131.58222689 31.30797901 130.03730468 31.29092598 128.49236488 C31.2667325 126.32596378 31.23669929 124.15971554 31.20532227 121.9934082 C31.18977798 120.76096878 31.1742337 119.52852936 31.15821838 118.25874329 C31.01879166 115.38704215 30.65931513 112.79187236 30 110 C22.60267133 109.97685284 15.20535045 109.95907277 7.80799294 109.94818783 C4.37328438 109.94296421 0.93860057 109.93587599 -2.49609375 109.92456055 C-6.44270535 109.91163965 -10.38930684 109.90676748 -14.3359375 109.90234375 C-15.57242035 109.89718246 -16.8089032 109.89202118 -18.08285522 109.88670349 C-19.22388702 109.88662796 -20.36491882 109.88655243 -21.54052734 109.88647461 C-22.548685 109.884254 -23.55684265 109.88203339 -24.59555054 109.87974548 C-27.01333061 109.83917452 -27.01333061 109.83917452 -29 111 C-29.33 135.42 -29.66 159.84 -30 185 C-44.52 185 -59.04 185 -74 185 C-74.18075729 169.86609562 -74.32805255 154.73267965 -74.41449738 139.5979681 C-74.4557068 132.570208 -74.51186285 125.54316735 -74.60351562 118.51586914 C-74.69192956 111.73365534 -74.73827878 104.95218933 -74.75901794 98.1694355 C-74.77379662 95.5821818 -74.8026567 92.99496887 -74.84584045 90.40803337 C-74.90394877 86.78276193 -74.91191139 83.16057454 -74.90820312 79.53491211 C-74.93696533 78.46604263 -74.96572754 77.39717316 -74.99536133 76.2959137 C-74.91626247 69.14594164 -74.91626247 69.14594164 -72.26533508 65.83050728 C-70.25436228 64.0583401 -68.2014697 62.52476439 -66 61 C-64.96509857 60.09422332 -63.94522512 59.17082259 -62.9453125 58.2265625 C-58.31905113 53.95912473 -53.68504809 49.70298527 -49 45.5 C-40.12636014 37.52924241 -31.37285777 29.43277427 -22.66210938 21.28491211 C-17.86700745 16.80154119 -13.04933734 12.34337576 -8.21118164 7.90649414 C-5.40989986 5.3307335 -2.66857375 2.71315613 0 0 Z " fill="#EAEAE9" transform="translate(146,45)"/>
<path d="M0 0 C5.89150278 1.59769567 9.473373 5.73844713 13.6875 10 C17.06615861 13.41073448 20.50984743 16.70826819 24.0625 19.9375 C28.77999637 24.23916165 33.46250728 28.57629631 38.125 32.9375 C42.75481107 37.26768677 47.39698619 41.5833114 52.0625 45.875 C57.16062917 50.56667602 62.21034398 55.30811804 67.25 60.0625 C79.2879573 71.44951288 79.2879573 71.44951288 91.6875 82.4375 C95.13444158 85.41343093 98.31246139 88.62735727 101.5 91.875 C106.21897495 96.67729072 111.11846066 100.98740951 116.41015625 105.16015625 C121.58992283 109.34483903 121.58992283 109.34483903 122.125 112.9375 C121.6875 116 121.6875 116 120.0625 118.375 C117.02386094 120.45406883 115.30300392 120.46155369 111.6875 120 C110.6975 119.34 109.7075 118.68 108.6875 118 C108.6875 117.34 108.6875 116.68 108.6875 116 C108.09324219 115.73574219 107.49898437 115.47148437 106.88671875 115.19921875 C104.60647413 113.95581716 103.25684481 112.70815724 101.5 110.8125 C98.82018126 108.02242586 96.02057949 105.61239356 92.94921875 103.26171875 C91.74785278 102.33879028 91.74785278 102.33879028 90.5222168 101.3972168 C89.91676025 100.93613525 89.31130371 100.47505371 88.6875 100 C88.69210896 100.57353085 88.69671793 101.14706169 88.70146656 101.73797226 C88.81188244 115.69246303 88.89430633 129.6468773 88.94656086 143.60171127 C88.97234403 150.35019365 89.00749594 157.09838446 89.06469727 163.84667969 C89.11985069 170.35647746 89.14890404 176.86608583 89.16188622 183.37610626 C89.17114044 185.86249822 89.18921135 188.34887317 89.21615028 190.83513641 C89.25233175 194.31200809 89.25744967 197.78761947 89.25512695 201.26464844 C89.28209152 202.81400085 89.28209152 202.81400085 89.30960083 204.39465332 C89.25954998 211.29705044 89.25954998 211.29705044 86.54023743 214.63861084 C83.26827174 216.20006496 81.09591336 216.5069243 77.47607422 216.51757812 C76.24484833 216.53018677 75.01362244 216.54279541 73.74508667 216.55578613 C72.41078108 216.54862763 71.07648075 216.54042397 69.7421875 216.53125 C68.36646246 216.53394634 66.99073929 216.53782994 65.61502075 216.54284668 C62.73844168 216.54873128 59.86236083 216.54021062 56.98583984 216.52148438 C53.29889912 216.49865123 49.61312034 216.51185027 45.92622185 216.53577423 C43.08829987 216.55022435 40.2506538 216.54563084 37.41272354 216.53526306 C36.05315132 216.53259577 34.693554 216.53586572 33.33401108 216.54518127 C31.43605782 216.55533648 29.5380166 216.53711382 27.64013672 216.51757812 C26.56045624 216.51439575 25.48077576 216.51121338 24.36837769 216.50793457 C21.6875 216 21.6875 216 19.83674622 214.41485596 C18.26369983 211.10948902 18.3279999 208.50335201 18.34692383 204.84472656 C18.34648575 204.13213181 18.34604767 203.41953705 18.34559631 202.68534851 C18.34768149 200.33682579 18.3709988 197.98902255 18.39453125 195.640625 C18.40012819 194.00966787 18.40439783 192.37870568 18.40739441 190.7477417 C18.41883551 186.46012386 18.44829622 182.17281207 18.48150635 177.88531494 C18.51762603 172.73832015 18.5313719 167.59122289 18.54886627 162.44413757 C18.57793419 154.62921235 18.63542599 146.81495833 18.6875 139 C6.8075 139 -5.0725 139 -17.3125 139 C-17.26609375 144.22328125 -17.2196875 149.4465625 -17.171875 154.828125 C-17.15143734 158.13673862 -17.13218173 161.44527444 -17.1171875 164.75390625 C-17.09327368 170.00586098 -17.06498081 175.25753684 -17.01074219 180.50927734 C-16.96728799 184.74328416 -16.94336376 188.97699194 -16.93299103 193.21120453 C-16.92559883 194.82677671 -16.9111635 196.44233249 -16.88957977 198.0577774 C-16.86055018 200.32045383 -16.85654362 202.58189395 -16.85839844 204.84472656 C-16.84951599 206.13268127 -16.84063354 207.42063599 -16.83148193 208.74761963 C-17.3125 212 -17.3125 212 -18.96075439 214.41485596 C-21.96236066 216.43802474 -23.78649976 216.50695123 -27.39453125 216.51757812 C-28.62260498 216.53018677 -29.85067871 216.54279541 -31.1159668 216.55578613 C-32.45231705 216.54862627 -33.78866205 216.54042227 -35.125 216.53125 C-36.49975865 216.53394577 -37.87451544 216.53782889 -39.24926758 216.54284668 C-42.12762644 216.54873793 -45.00548809 216.54019176 -47.88378906 216.52148438 C-51.56954016 216.49869389 -55.25412622 216.51181913 -58.93983459 216.53577423 C-61.77779893 216.55024299 -64.61548798 216.54562154 -67.45346069 216.53526306 C-68.81220641 216.5325987 -70.17097728 216.53585541 -71.5296936 216.54518127 C-73.42994699 216.55536241 -75.33028824 216.53708729 -77.23046875 216.51757812 C-78.85118286 216.51280457 -78.85118286 216.51280457 -80.50463867 216.50793457 C-83.3125 216 -83.3125 216 -85.66424561 214.63861084 C-88.31375688 210.39713623 -87.83481031 206.16364147 -87.76660156 201.26464844 C-87.76718567 200.17166443 -87.76776978 199.07868042 -87.76837158 197.95257568 C-87.76558362 194.33785303 -87.73445649 190.7239537 -87.703125 187.109375 C-87.69566518 184.60402883 -87.68997103 182.09867684 -87.68597412 179.59332275 C-87.67225921 173.67177281 -87.64073004 167.75048727 -87.60057616 161.82907319 C-87.55146038 154.42516391 -87.52999229 147.02121799 -87.5078125 139.6171875 C-87.46490593 126.4113081 -87.39739794 113.20567277 -87.3125 100 C-88.597943 100.9496761 -89.88141987 101.90201384 -91.1640625 102.85546875 C-91.87900879 103.38551514 -92.59395508 103.91556152 -93.33056641 104.46166992 C-95.88378346 106.44341674 -98.05430836 108.68804189 -100.3125 111 C-109.76705524 120.58406969 -109.76705524 120.58406969 -114.25 120.8125 C-117.3125 120 -117.3125 120 -119.25 118.375 C-120.73203717 115.06221103 -121.07690971 113.61357317 -120.3125 110 C-117.45587628 106.37570479 -113.97963574 103.44930088 -110.50756836 100.4309082 C-105.87434894 96.39715619 -101.34258799 92.27865045 -96.875 88.0625 C-96.19614746 87.42425293 -95.51729492 86.78600586 -94.81787109 86.12841797 C-91.15686776 82.68518194 -87.50217538 79.23527143 -83.84765625 75.78515625 C-77.31360862 69.61983257 -70.78334075 63.46631879 -64.0625 57.50390625 C-61.67739935 55.332245 -59.33436653 53.12810018 -57 50.90234375 C-56.22914062 50.16886719 -55.45828125 49.43539062 -54.6640625 48.6796875 C-53.11311345 47.20087562 -51.56613738 45.71788416 -50.0234375 44.23046875 C-49.31445312 43.555 -48.60546875 42.87953125 -47.875 42.18359375 C-47.23691406 41.57056396 -46.59882812 40.95753418 -45.94140625 40.32592773 C-44.3125 39 -44.3125 39 -42.3125 39 C-42.3125 38.34 -42.3125 37.68 -42.3125 37 C-41.6525 37 -40.9925 37 -40.3125 37 C-40.3125 36.34 -40.3125 35.68 -40.3125 35 C-38.984375 33.66015625 -38.984375 33.66015625 -37.0625 32.0625 C-32.80742205 28.45213083 -28.7009562 24.70654074 -24.61425781 20.90844727 C-21.6105362 18.13374695 -18.51518844 15.54025203 -15.3125 13 C-13.0232931 10.77103539 -10.78070666 8.54023846 -8.6875 6.125 C-5.88527111 3.0225323 -4.06053863 1.22582298 0 0 Z M-2.8515625 19.37890625 C-3.88519818 20.43524452 -4.91362188 21.49670131 -5.9375 22.5625 C-9.88336304 26.64672447 -13.94759411 30.47721684 -18.24609375 34.18969727 C-21.75236311 37.26141126 -25.11893069 40.47939552 -28.5 43.6875 C-38.14848103 52.80376757 -47.86195606 61.8390042 -57.75390625 70.69140625 C-59.68973546 72.43808574 -61.61279699 74.1950899 -63.52734375 75.96484375 C-64.34609985 76.72075806 -64.34609985 76.72075806 -65.18139648 77.49194336 C-66.2491045 78.47910582 -67.31509344 79.46813168 -68.37915039 80.45922852 C-72.09175349 83.88962674 -72.09175349 83.88962674 -74.3125 85 C-74.3125 123.61 -74.3125 162.22 -74.3125 202 C-59.7925 202 -45.2725 202 -30.3125 202 C-29.9825 177.58 -29.6525 153.16 -29.3125 128 C-26.69728215 126.69239107 -24.78136599 126.88002452 -21.85302734 126.88647461 C-20.14147964 126.88658791 -20.14147964 126.88658791 -18.39535522 126.88670349 C-17.15887238 126.89186478 -15.92238953 126.89702606 -14.6484375 126.90234375 C-13.38609283 126.9037587 -12.12374817 126.90517365 -10.82315063 126.90663147 C-7.46611701 126.91128922 -4.109151 126.92027592 -0.75213623 126.93133545 C2.67304906 126.9415623 6.09824134 126.94613182 9.5234375 126.95117188 C16.24481043 126.96221762 22.96615131 126.97896806 29.6875 127 C30.64151687 131.03978799 30.84052991 134.84737104 30.89282227 138.9934082 C30.90272186 139.67688828 30.91262146 140.36036835 30.92282104 141.06455994 C30.95425406 143.30993254 30.97912095 145.55532626 31.00390625 147.80078125 C31.02449153 149.36305777 31.0454884 150.92532891 31.06687927 152.4875946 C31.12193751 156.58923986 31.17141808 160.69093401 31.21972656 164.79266357 C31.27891828 169.71953909 31.34505642 174.64632569 31.41002655 179.57312775 C31.5078315 187.04869729 31.5968273 194.52432522 31.6875 202 C46.2075 202 60.7275 202 75.6875 202 C75.98175933 187.08296716 76.22088066 172.16743512 76.36105824 157.24818039 C76.42789704 150.31966493 76.51888908 143.3930896 76.66821289 136.46582031 C76.81238834 129.77415767 76.88729532 123.08492067 76.92090416 116.39163971 C76.94483725 113.84460063 76.99157749 111.29766581 77.06199074 108.75148773 C78.03559827 94.51416784 78.03559827 94.51416784 72.85450745 81.82878113 C69.76991931 78.70179851 66.36748083 76.37862491 62.6875 74 C61.25745749 72.72726353 59.8482007 71.42943571 58.48828125 70.08203125 C57.90506104 69.53554932 57.32184082 68.98906738 56.72094727 68.42602539 C56.15303467 67.89356201 55.58512207 67.36109863 55 66.8125 C50.95047648 63.02326979 46.8876181 59.25581011 42.75 55.5625 C37.57026853 50.93898131 32.52424311 46.17570391 27.48266602 41.40258789 C23.79750524 37.92641024 20.05950667 34.54836544 16.18212891 31.28735352 C13.16069423 28.68493191 10.43781883 25.77794685 7.671875 22.91015625 C6.59679687 21.80994141 6.59679687 21.80994141 5.5 20.6875 C4.82582031 19.99011719 4.15164062 19.29273438 3.45703125 18.57421875 C0.5270471 15.96763241 -0.00911772 16.71575414 -2.8515625 19.37890625 Z " fill="#2BA78E" transform="translate(146.3125,28)"/>
<path d="M0 0 C3.99786127 3.36183789 6.51088212 5.5803075 7.24609375 10.90625 C7.22675781 12.1953125 7.20742187 13.484375 7.1875 14.8125 C7.18621094 16.1015625 7.18492187 17.390625 7.18359375 18.71875 C6.58109614 23.71242385 4.91058175 26.21143526 1.3125 29.625 C-3.77859117 32.0365695 -8.70191396 32.14135269 -14.25 31.3125 C-18.47802002 29.16820332 -21.6812811 26.90121251 -23.25 22.3125 C-24.7296575 9.71299218 -24.7296575 9.71299218 -21.5 4.625 C-15.47015352 -1.57234222 -8.13979275 -4.22643085 0 0 Z " fill="#171716" transform="translate(211.25,302.6875)"/>
<path d="M0 0 C1.62836099 1.38583914 3.25259896 2.77673146 4.85921574 4.18772125 C6.98702585 6.03560839 6.98702585 6.03560839 9.32955837 7.68550873 C15.5008557 12.4200847 15.5008557 12.4200847 16.81430244 16.57746887 C17.10534205 19.60569103 17.11491195 22.51578057 17.02172852 25.55664062 C17.02369987 27.25551422 17.02369987 27.25551422 17.02571106 28.9887085 C17.01946666 32.71283016 16.94959099 36.43284127 16.87890625 40.15625 C16.86211088 42.74554226 16.8493041 45.3348632 16.84031677 47.92419434 C16.80952675 54.03041255 16.73868677 60.1349476 16.64817137 66.24053335 C16.54731649 73.195639 16.49802682 80.15081726 16.45291245 87.10647297 C16.35902341 101.40522801 16.19408243 115.70226224 16 130 C1.48 130 -13.04 130 -28 130 C-28.06058594 125.00488281 -28.12117188 120.00976562 -28.18359375 114.86328125 C-28.22409586 111.69595508 -28.26487307 108.52863724 -28.30664062 105.36132812 C-28.37288749 100.3357225 -28.43812389 95.31011816 -28.49731445 90.28442383 C-28.54510682 86.23193137 -28.59745452 82.17952086 -28.65294075 78.12712669 C-28.67329706 76.58222689 -28.69202099 75.03730468 -28.70907402 73.49236488 C-28.7332675 71.32596378 -28.76330071 69.15971554 -28.79467773 66.9934082 C-28.81022202 65.76096878 -28.8257663 64.52852936 -28.84178162 63.25874329 C-28.93457186 59.68436744 -28.93457186 59.68436744 -30 55 C-48.81 54.67 -67.62 54.34 -87 54 C-87 53.34 -87 52.68 -87 52 C-85.90236328 51.97494385 -84.80472656 51.9498877 -83.67382812 51.92407227 C-79.5212436 51.82843619 -75.36876727 51.72862639 -71.21630859 51.62768555 C-69.43410814 51.58491658 -67.65188172 51.54321385 -65.86962891 51.50268555 C-54.55677096 51.24456118 -43.28810779 50.80813491 -32 50 C-32 50.66 -32 51.32 -32 52 C-29.69 52.66 -27.38 53.32 -25 54 C-25 78.42 -25 102.84 -25 128 C-12.46 128 0.08 128 13 128 C13.0226297 114.74317556 13.04096063 101.48636403 13.05181217 88.22952461 C13.05702145 82.07325648 13.06408349 75.91700229 13.07543945 69.76074219 C13.08633793 63.81499978 13.09229156 57.86927076 13.09487724 51.92351913 C13.09671897 49.65983749 13.10031534 47.39615654 13.10573006 45.13248062 C13.11303292 41.95174856 13.11398706 38.77107118 13.11352539 35.59033203 C13.1189183 34.19957207 13.1189183 34.19957207 13.12442017 32.78071594 C13.61121742 22.14930786 13.61121742 22.14930786 10.2578125 12.5625 C9.55398437 12.046875 8.85015625 11.53125 8.125 11 C7.07699219 10.195625 7.07699219 10.195625 6.0078125 9.375 C4.34696084 8.23760742 2.67490094 7.11660063 1 6 C1 5.01 1 4.02 1 3 C0.01 2.67 -0.98 2.34 -2 2 C-1.34 2 -0.68 2 0 2 C0 1.34 0 0.68 0 0 Z " fill="#B4E5D9" transform="translate(206,100)"/>
<path d="M0 0 C0 0.99 0 1.98 0 3 C-0.99 3.66 -1.98 4.32 -3 5 C-4.04892238 6.63631892 -5.04906703 8.30485863 -6 10 C-6.99 11.485 -6.99 11.485 -8 13 C-8.99 13 -9.98 13 -11 13 C-10.67 50.29 -10.34 87.58 -10 126 C8.315 126.495 8.315 126.495 27 127 C27 103.9 27 80.8 27 57 C27.99 57 28.98 57 30 57 C30 80.76 30 104.52 30 129 C15.48 129 0.96 129 -14 129 C-14.18075729 113.86609562 -14.32805255 98.73267965 -14.41449738 83.5979681 C-14.4557068 76.570208 -14.51186285 69.54316735 -14.60351562 62.51586914 C-14.69192956 55.73365534 -14.73827878 48.95218933 -14.75901794 42.1694355 C-14.77379662 39.5821818 -14.8026567 36.99496887 -14.84584045 34.40803337 C-14.90394877 30.78276193 -14.91191139 27.16057454 -14.90820312 23.53491211 C-14.93696533 22.46604263 -14.96572754 21.39717316 -14.99536133 20.2959137 C-14.91634506 13.15340767 -14.91634506 13.15340767 -12.2809906 9.8362751 C-10.26586163 8.05450696 -8.21647066 6.51998413 -6 5 C-4.8237295 4.03239152 -3.65590565 3.05434707 -2.5 2.0625 C-1.675 1.381875 -0.85 0.70125 0 0 Z " fill="#B8E5DA" transform="translate(86,101)"/>
<path d="M0 0 C3.56021195 2.16708553 5.48011006 4.15343789 7 8 C7.22705078 10.74902344 7.22705078 10.74902344 7.1953125 13.859375 C7.18886719 14.97441406 7.18242188 16.08945312 7.17578125 17.23828125 C7.15902344 18.39714844 7.14226562 19.55601562 7.125 20.75 C7.11597656 21.92433594 7.10695313 23.09867187 7.09765625 24.30859375 C7.07410063 27.20593536 7.04120652 30.10286441 7 33 C5.02 33 3.04 33 1 33 C0.98598145 31.9330188 0.98598145 31.9330188 0.97167969 30.84448242 C0.91803112 27.6247794 0.83437365 24.40653817 0.75 21.1875 C0.73582031 20.06794922 0.72164062 18.94839844 0.70703125 17.79492188 C0.67480469 16.72177734 0.64257812 15.64863281 0.609375 14.54296875 C0.58842773 13.55321045 0.56748047 12.56345215 0.54589844 11.54370117 C0.22022455 8.87485241 0.22022455 8.87485241 -1.88183594 7.1809082 C-4.55696011 5.68948639 -5.98094925 5.47166612 -9 6 C-11.59176436 8.06600303 -12.84799161 9.28564215 -13.54589844 12.56542969 C-13.5668457 13.50805664 -13.58779297 14.45068359 -13.609375 15.421875 C-13.64160156 16.44667969 -13.67382812 17.47148437 -13.70703125 18.52734375 C-13.72830078 20.12255859 -13.72830078 20.12255859 -13.75 21.75 C-13.77964844 22.82894531 -13.80929688 23.90789062 -13.83984375 25.01953125 C-13.91046936 27.67976244 -13.96320196 30.33912102 -14 33 C-15.98 33 -17.96 33 -20 33 C-20 22.44 -20 11.88 -20 1 C-18.35 1 -16.7 1 -15 1 C-15 2.32 -15 3.64 -15 5 C-14.34 5 -13.68 5 -13 5 C-12.731875 4.360625 -12.46375 3.72125 -12.1875 3.0625 C-9.77197705 -1.13288196 -4.35576453 -0.62103674 0 0 Z " fill="#1A1A1A" transform="translate(114,301)"/>
<path d="M0 0 C11.88 0 23.76 0 36 0 C36 23.76 36 47.52 36 72 C35.67 72 35.34 72 35 72 C35 48.9 35 25.8 35 2 C24.11 2 13.22 2 2 2 C2.08378906 6.19203125 2.16757813 10.3840625 2.25390625 14.703125 C2.31788212 18.07758749 2.38062457 21.45206798 2.44254303 24.8265686 C2.50791552 28.37110422 2.57538318 31.91556964 2.64819336 35.45996094 C2.7319239 39.54090503 2.80561669 43.62197994 2.87890625 47.703125 C2.90594131 48.95361633 2.93297638 50.20410767 2.96083069 51.49249268 C3.05666375 57.2165433 3.05384436 62.92524941 2.75756836 68.64355469 C2.71006943 69.58189148 2.6625705 70.52022827 2.6136322 71.48699951 C1.82308787 74.7245061 0.60140059 75.95950631 -2 78 C-5.18390463 79.25810954 -8.29297259 79.08929922 -11.68652344 79.02172852 C-13.39784454 78.99158409 -13.39784454 78.99158409 -15.14373779 78.96083069 C-16.36989807 78.93379562 -17.59605835 78.90676056 -18.859375 78.87890625 C-20.11888977 78.85529526 -21.37840454 78.83168427 -22.67608643 78.80735779 C-26.01672274 78.74377606 -29.35719911 78.67556319 -32.69769287 78.60510254 C-36.10958468 78.53427725 -39.52159154 78.46954538 -42.93359375 78.40429688 C-49.62251602 78.27514476 -56.31129405 78.13988533 -63 78 C-63 77.67 -63 77.34 -63 77 C-62.26750534 76.99413376 -61.53501068 76.98826752 -60.78031921 76.98222351 C-53.87918012 76.9243336 -46.97831888 76.85227834 -40.07750225 76.76428509 C-36.52963721 76.71954618 -32.98188792 76.68029829 -29.43383789 76.65356445 C-25.35533459 76.62259374 -21.27745455 76.56780395 -17.19921875 76.51171875 C-15.28661507 76.50213387 -15.28661507 76.50213387 -13.33537292 76.49235535 C-12.15437515 76.47256119 -10.97337738 76.45276703 -9.7565918 76.43237305 C-8.19439156 76.41571846 -8.19439156 76.41571846 -6.60063171 76.39872742 C-4.02613048 76.16985626 -4.02613048 76.16985626 -2.16723633 74.91308594 C-0.36737574 71.96313665 -0.597162 69.39022457 -0.56762695 65.95825195 C-0.5574353 65.24580322 -0.54724365 64.53335449 -0.53674316 63.79931641 C-0.50656049 61.44555858 -0.49733953 59.09220735 -0.48828125 56.73828125 C-0.4714384 55.10587709 -0.4532887 53.47348594 -0.43388367 51.84111023 C-0.3863344 47.54544131 -0.35655708 43.24982509 -0.33044434 38.95397949 C-0.2954272 33.79931398 -0.23840055 28.64485093 -0.18505096 23.49034882 C-0.10647923 15.66025794 -0.05591789 7.83043311 0 0 Z " fill="#AFE3D8" transform="translate(129,167)"/>
<path d="M0 0 C3.73832235 0.95719141 4.92059535 2.21862369 6.9375 5.49609375 C7.78836537 10.87988792 8.10672643 16.45068322 5.0625 21.18359375 C2.57657459 23.88886552 1.73572403 24.38966388 -1.875 24.87109375 C-6.10279414 24.3737062 -7.39067564 22.70228298 -10.0625 19.49609375 C-12.05131609 15.51846156 -11.58564293 10.82114752 -11.0625 6.49609375 C-8.98724459 1.38553487 -5.34419872 -0.49595784 0 0 Z " fill="#E5E5E4" transform="translate(205.0625,305.50390625)"/>
<path d="M0 0 C-0.33 1.65 -0.66 3.3 -1 5 C-1.80824219 4.93039062 -2.61648437 4.86078125 -3.44921875 4.7890625 C-9.36824034 4.34375253 -9.36824034 4.34375253 -14.91015625 6.01953125 C-17.57365808 8.83833931 -18.34135901 11.76587634 -18.5625 15.5 C-18.31711003 19.90214726 -16.87807881 22.61402493 -14 26 C-9.72000646 28.13999677 -4.50951645 27.09321611 0 26 C0.042721 27.66611905 0.04063832 29.33382885 0 31 C-2.30765284 33.30765284 -7.08714847 32.42526551 -10.19604492 32.46191406 C-15.38662209 32.35022203 -18.2338164 31.41052154 -21.80078125 27.703125 C-25.90350018 21.87646228 -25.95861756 15.96482313 -25 9 C-22.89087717 4.57909841 -19.84521341 2.49437011 -15.6875 0.0625 C-10.30284808 -1.48900988 -5.34604044 -1.78201348 0 0 Z " fill="#151514" transform="translate(168,302)"/>
<path d="M0 0 C0.33 37.95 0.66 75.9 1 115 C-1 114 -1 114 -2 111 C-2.09984248 109.55349229 -2.14609259 108.10292903 -2.15821838 106.6530304 C-2.1680072 105.76542023 -2.17779602 104.87781006 -2.18788147 103.96330261 C-2.19651466 102.50674004 -2.19651466 102.50674004 -2.20532227 101.02075195 C-2.21522186 99.99618896 -2.22512146 98.97162598 -2.23532104 97.91601562 C-2.26695337 94.52346115 -2.29170041 91.13089266 -2.31640625 87.73828125 C-2.33697427 85.38843925 -2.3579707 83.03860097 -2.37937927 80.68876648 C-2.43461557 74.49920658 -2.48401802 68.30961321 -2.53222656 62.11999512 C-2.58243018 55.80587784 -2.6381222 49.49180927 -2.69335938 43.17773438 C-2.80096002 30.78519784 -2.9024008 18.39261905 -3 6 C-5.7595514 8.74186316 -5.7595514 8.74186316 -8.4375 11.5625 C-10.44686402 13.4111149 -12.64017372 14.62800798 -15 16 C-17.00580329 17.32458708 -19.00715862 18.6559907 -21 20 C-21.66 19.67 -22.32 19.34 -23 19 C-21.04709472 17.16056628 -19.08818082 15.32840869 -17.125 13.5 C-16.29162109 12.71302734 -16.29162109 12.71302734 -15.44140625 11.91015625 C-11.2265625 8 -11.2265625 8 -9 8 C-8.6596875 7.13375 -8.6596875 7.13375 -8.3125 6.25 C-6.47530093 3.10051589 -3.84497849 0 0 0 Z " fill="#C3EFE3" transform="translate(59,128)"/>
<path d="M0 0 C0.33 0 0.66 0 1 0 C1.06946019 9.46616872 1.12279088 18.93224994 1.15543652 28.39861774 C1.1711035 32.79407555 1.19236044 37.18935922 1.22631836 41.5847168 C1.25887524 45.82518924 1.27684523 50.06549401 1.28463173 54.30608177 C1.29018187 55.92525053 1.30101979 57.54440994 1.31719017 59.16350746 C1.33891617 61.42862523 1.34196903 63.69304703 1.34057617 65.95825195 C1.35056892 67.89351494 1.35056892 67.89351494 1.36076355 69.86787415 C1 73 1 73 -0.15774536 74.9168396 C-2.77816068 76.45752244 -4.78410512 76.3741268 -7.81665039 76.37231445 C-9.01121353 76.37854324 -10.20577667 76.38477203 -11.4365387 76.39118958 C-12.72720749 76.38197983 -14.01787628 76.37277008 -15.34765625 76.36328125 C-16.68379211 76.3627626 -18.01992874 76.3632805 -19.35606384 76.36479187 C-22.15456553 76.36470219 -24.95277884 76.35428124 -27.7512207 76.33618164 C-31.34163263 76.31347234 -34.93162404 76.31295468 -38.52208805 76.31969929 C-41.28014374 76.32303724 -44.03810321 76.31641289 -46.79614067 76.30657005 C-48.76488831 76.30084024 -50.73365235 76.30215503 -52.70240784 76.30354309 C-54.48952431 76.28924507 -54.48952431 76.28924507 -56.31274414 76.2746582 C-57.36514786 76.27005081 -58.41755157 76.26544342 -59.50184631 76.26069641 C-62 76 -62 76 -64 74 C-63.12190674 74.00523682 -62.24381348 74.01047363 -61.33911133 74.01586914 C-57.91495039 74.0334472 -54.49084063 74.04569804 -51.06665039 74.05493164 C-49.61579611 74.05980292 -48.1649462 74.06649306 -46.71411133 74.07543945 C-31.46262211 74.16676574 -16.23778031 73.58541392 -1 73 C-1.00222061 72.10019913 -1.00444122 71.20039825 -1.00672913 70.27333069 C-1.02672944 61.81186033 -1.0419728 53.35039786 -1.05181217 44.88890934 C-1.05704065 40.53831541 -1.06413765 36.18774093 -1.07543945 31.8371582 C-1.08626959 27.64209742 -1.0922771 23.44705541 -1.09487724 19.25198174 C-1.09673126 17.64793032 -1.10035144 16.04387997 -1.10573006 14.4398365 C-1.11294219 12.20083485 -1.11399087 9.9619117 -1.11352539 7.72290039 C-1.115746 6.44604874 -1.11796661 5.16919708 -1.12025452 3.85365295 C-1 1 -1 1 0 0 Z " fill="#359C85" transform="translate(128,167)"/>
<path d="M0 0 C1.98 0 3.96 0 6 0 C6 14.52 6 29.04 6 44 C4.02 44 2.04 44 0 44 C0 29.48 0 14.96 0 0 Z " fill="#1D1D1D" transform="translate(78,290)"/>
<path d="M0 0 C0.33 0 0.66 0 1 0 C1.07001905 14.56840934 1.12275392 29.13679267 1.15543652 43.70533562 C1.17091863 50.46946709 1.19203361 57.23349414 1.22631836 63.99755859 C1.25936433 70.52032203 1.2768333 77.04301754 1.28463173 83.56586075 C1.29019207 86.05945676 1.30104939 88.55304656 1.31719017 91.04659653 C1.33883991 94.52843012 1.34197212 98.00980959 1.34057617 101.49169922 C1.351362 102.53179138 1.36214783 103.57188354 1.3732605 104.64349365 C1.36913651 105.58862823 1.36501251 106.53376282 1.36076355 107.50753784 C1.36352893 108.33162077 1.36629431 109.1557037 1.36914349 110.00475883 C1.24732614 110.66318842 1.12550879 111.321618 1 112 C-2.46677244 114.31118163 -3.76331881 114.24417896 -7.84838867 114.22705078 C-9.64991646 114.22682419 -9.64991646 114.22682419 -11.48783875 114.22659302 C-12.78478165 114.21627045 -14.08172455 114.20594788 -15.41796875 114.1953125 C-16.75889373 114.19158155 -18.09982144 114.18873497 -19.44075012 114.18673706 C-22.96714833 114.17910699 -26.49338134 114.15946403 -30.01971436 114.1373291 C-33.61923996 114.1168571 -37.21879231 114.10773245 -40.81835938 114.09765625 C-47.87897376 114.07621745 -54.93947609 114.04208913 -62 114 C-62.33 113.34 -62.66 112.68 -63 112 C-61.90125801 111.9845388 -61.90125801 111.9845388 -60.78031921 111.96876526 C-53.87930492 111.87081236 -46.9783718 111.76830097 -40.07750225 111.66066074 C-36.52964549 111.60548208 -32.98178041 111.55207023 -29.43383789 111.50268555 C-25.35554042 111.44584148 -21.27739562 111.38133199 -17.19921875 111.31640625 C-15.92414963 111.29969376 -14.64908051 111.28298126 -13.33537292 111.26576233 C-12.15437515 111.24581711 -10.97337738 111.22587189 -9.7565918 111.20532227 C-8.71512497 111.18977798 -7.67365814 111.1742337 -6.60063171 111.15821838 C-3.88588267 111.10531325 -3.88588267 111.10531325 -1 110 C-1.00523682 108.83509033 -1.01047363 107.67018066 -1.01586914 106.4699707 C-1.12267894 80.11984216 -0.95843768 53.78321132 -0.5 27.4375 C-0.48804218 26.75001804 -0.47608437 26.06253609 -0.46376419 25.35422134 C-0.31612735 16.90268428 -0.16154697 8.4512828 0 0 Z " fill="#369D86" transform="translate(233,129)"/>
<path d="M0 0 C2.62233863 1.74822575 4.829484 3.7209582 7 6 C6.34 6.33 5.68 6.66 5 7 C0.68421053 4.68421053 0.68421053 4.68421053 -1 3 C-3.92746861 2.39011071 -5.19705713 2.16067145 -8 3 C-10.59637521 5.1770585 -12.82102835 7.50951183 -15.08203125 10.03125 C-15.71496094 10.6809375 -16.34789062 11.330625 -17 12 C-17.66 12 -18.32 12 -19 12 C-19.23976562 12.57621094 -19.47953125 13.15242188 -19.7265625 13.74609375 C-21.25848329 16.45749956 -23.02073052 18.02441882 -25.375 20.0625 C-28.37166704 22.68349158 -31.35216486 25.30989655 -34.2578125 28.03125 C-34.79744629 28.53519287 -35.33708008 29.03913574 -35.89306641 29.55834961 C-36.95315363 30.5506312 -38.01019717 31.54617584 -39.06396484 32.54516602 C-42.77771055 36 -42.77771055 36 -45 36 C-45 36.66 -45 37.32 -45 38 C-45.66 38 -46.32 38 -47 38 C-47 38.66 -47 39.32 -47 40 C-48.29296875 41.3046875 -48.29296875 41.3046875 -50.1875 42.875 C-54.22097928 46.29800674 -58.121588 49.84137581 -62 53.4375 C-62.5880542 53.98196777 -63.1761084 54.52643555 -63.78198242 55.08740234 C-65.18881538 56.39070933 -66.59452828 57.69522519 -68 59 C-68.495 57.515 -68.495 57.515 -69 56 C-67.6015625 54.02734375 -67.6015625 54.02734375 -65.625 51.9375 C-62.99549245 49.18958113 -62.99549245 49.18958113 -61 46 C-60.09636719 45.57074219 -59.19273438 45.14148438 -58.26171875 44.69921875 C-54.6782791 42.83239689 -52.55466457 40.75873263 -49.8125 37.8125 C-47.26953125 35.08203125 -47.26953125 35.08203125 -45 33 C-44.01 33 -43.02 33 -42 33 C-41.731875 32.4225 -41.46375 31.845 -41.1875 31.25 C-39.97070811 28.94449957 -38.69666121 26.97943808 -37 25 C-36.34 25 -35.68 25 -35 25 C-34.773125 24.443125 -34.54625 23.88625 -34.3125 23.3125 C-31.66310901 18.6445254 -27.76793515 15.38396758 -23 13 C-22.01 13 -21.02 13 -20 13 C-19.76539063 12.26394531 -19.53078125 11.52789062 -19.2890625 10.76953125 C-15.81803742 3.31208646 -8.09066927 -1.85687491 0 0 Z " fill="#CDEFE9" transform="translate(151,27)"/>
<path d="M0 0 C1.65 0 3.3 0 5 0 C5 1.32 5 2.64 5 4 C5.66 4 6.32 4 7 4 C7 3.34 7 2.68 7 2 C7.99 2.33 8.98 2.66 10 3 C9.51917969 3.74507813 9.03835937 4.49015625 8.54296875 5.2578125 C6.09994551 10.14385898 6.42782291 15.52401698 6.3125 20.875 C6.27833984 21.94492187 6.24417969 23.01484375 6.20898438 24.1171875 C6.12687502 26.74468689 6.05760376 29.37186816 6 32 C4.02 32 2.04 32 0 32 C0 21.44 0 10.88 0 0 Z " fill="#161616" transform="translate(94,302)"/>
<path d="M0 0 C-14.32291494 13.43024429 -14.32291494 13.43024429 -20.4375 18.875 C-24.12659658 22.16774736 -27.62238471 25.60151505 -31.09375 29.12109375 C-32.88465902 30.8863135 -34.72105123 32.54574756 -36.625 34.1875 C-37.26695313 34.74695313 -37.90890625 35.30640625 -38.5703125 35.8828125 C-39.94929666 37.08443535 -41.33032183 38.28375002 -42.71777344 39.47558594 C-44.66044445 41.15457307 -46.58084245 42.85671582 -48.5 44.5625 C-49.13631348 45.10479248 -49.77262695 45.64708496 -50.42822266 46.20581055 C-54.14762921 49.51135665 -54.14762921 49.51135665 -55.46875 54.21484375 C-55.06138188 57.0731714 -55.06138188 57.0731714 -54 60 C-54.99 60 -55.98 60 -57 60 C-58.25497957 56.2350613 -58.52064444 53.96991382 -58 50 C-55.99337591 46.99531681 -53.72591787 44.37438548 -51 42 C-50.34 42 -49.68 42 -49 42 C-48.67 41.01 -48.34 40.02 -48 39 C-45.03145515 36.80585815 -42.50820059 35.1694002 -39 34 C-38.26676204 31.98491642 -38.26676204 31.98491642 -38 30 C-37.34 30 -36.68 30 -36 30 C-35.67 29.01 -35.34 28.02 -35 27 C-33.67592331 26.31513275 -32.34090759 25.65129797 -31 25 C-30.29875 24.29875 -29.5975 23.5975 -28.875 22.875 C-28.25625 22.25625 -27.6375 21.6375 -27 21 C-26.34 21 -25.68 21 -25 21 C-24.773125 20.4225 -24.54625 19.845 -24.3125 19.25 C-23 17 -23 17 -20.5625 15.125 C-17.79988939 13.12454437 -17.79988939 13.12454437 -16.4375 9.875 C-15 7 -15 7 -13 5.625 C-11 5 -11 5 -8 5 C-8 4.01 -8 3.02 -8 2 C-3.71900826 -1.23966942 -3.71900826 -1.23966942 0 0 Z " fill="#CEF1E9" transform="translate(82,87)"/>
<path d="M0 0 C1.98 0 3.96 0 6 0 C6 10.56 6 21.12 6 32 C4.02 32 2.04 32 0 32 C0 21.44 0 10.88 0 0 Z " fill="#1D1D1D" transform="translate(175,302)"/>
<path d="M0 0 C1.98 0 3.96 0 6 0 C6 10.56 6 21.12 6 32 C4.02 32 2.04 32 0 32 C0 21.44 0 10.88 0 0 Z " fill="#202120" transform="translate(130,302)"/>
<path d="M0 0 C0.99 0 1.98 0 3 0 C3 36.63 3 73.26 3 111 C4.32 111.66 5.64 112.32 7 113 C7 113.66 7 114.32 7 115 C37.195 115.495 37.195 115.495 68 116 C68 116.33 68 116.66 68 117 C59.98534654 117.09271207 51.97091741 117.16377038 43.95586014 117.20724869 C40.23405252 117.22811704 36.51261198 117.25641981 32.79101562 117.30175781 C29.1989049 117.34524413 25.60714705 117.36914277 22.0147934 117.37950897 C20.64482823 117.3868955 19.27488223 117.40132001 17.90506744 117.42292023 C15.98540611 117.4519848 14.0653891 117.45363416 12.14550781 117.45410156 C11.05296692 117.46298401 9.96042603 117.47186646 8.83477783 117.48101807 C6 117 6 117 3.64428711 115.64257812 C1.0023921 111.39671745 1.47768404 107.16404747 1.54589844 102.26464844 C1.54531433 101.17166443 1.54473022 100.07868042 1.54412842 98.95257568 C1.54691638 95.33785303 1.57804351 91.7239537 1.609375 88.109375 C1.61683482 85.60402883 1.62252897 83.09867684 1.62652588 80.59332275 C1.64024079 74.67177281 1.67176996 68.75048727 1.71192384 62.82907319 C1.76103962 55.42516391 1.78250771 48.02121799 1.8046875 40.6171875 C1.84759407 27.4113081 1.91510206 14.20567277 2 1 C1.34 0.67 0.68 0.34 0 0 Z " fill="#6AB7A5" transform="translate(57,127)"/>
<path d="M0 0 C10.89 0 21.78 0 33 0 C33.05607422 7.51007813 33.05607422 7.51007813 33.11328125 15.171875 C33.14355746 18.34378444 33.17470289 21.51563751 33.20898438 24.6875 C33.26331404 29.72197643 33.31442359 34.75634137 33.34643555 39.79101562 C33.37244598 43.8501292 33.41283192 47.90886852 33.46318626 51.96775055 C33.47987037 53.5162414 33.49137505 55.06479701 33.49761391 56.61336517 C33.50723858 58.78268156 33.535276 60.95103717 33.56762695 63.12011719 C33.58428154 64.97210724 33.58428154 64.97210724 33.60127258 66.86151123 C34.03679158 70.28959627 34.3944895 71.73371635 37 74 C39.75618347 74.61877842 39.75618347 74.61877842 42.94018555 74.54589844 C44.16122482 74.56561707 45.3822641 74.58533569 46.64030457 74.60565186 C47.95912125 74.60688049 49.27793793 74.60810913 50.63671875 74.609375 C52.00008614 74.62435513 53.36343538 74.64108194 54.72676086 74.65948486 C58.31227445 74.70319063 61.89754327 74.72316416 65.48327637 74.73822021 C69.14329523 74.75778004 72.80304928 74.79975115 76.46289062 74.83984375 C83.64185595 74.91518047 90.82071026 74.96545046 98 75 C98 75.33 98 75.66 98 76 C89.98530167 76.04635629 81.97065943 76.08188589 73.95586014 76.10362434 C70.2341971 76.11405811 66.51262584 76.12820982 62.79101562 76.15087891 C59.19893238 76.1726219 55.60693737 76.18457169 52.0147934 76.18975449 C50.64487062 76.19344764 49.27495262 76.20065945 47.90506744 76.21146011 C45.98526221 76.22599349 44.06536804 76.22681708 42.14550781 76.22705078 C41.05296692 76.231492 39.96042603 76.23593323 38.83477783 76.24050903 C36 76 36 76 32 74 C32 49.91 32 25.82 32 1 C15.10352242 -0.28676864 15.10352242 -0.28676864 0 4 C0 2.68 0 1.36 0 0 Z " fill="#DBF5F1" transform="translate(131,169)"/>
<path d="M0 0 C2.625 -0.1875 2.625 -0.1875 5 0 C0.76891677 5.10738177 -3.6876419 9.69693728 -8.5625 14.1875 C-9.26213867 14.83750977 -9.96177734 15.48751953 -10.68261719 16.15722656 C-12.78492729 18.10862117 -14.89200927 20.05474555 -17 22 C-18.17077143 23.08442113 -19.34135791 24.169042 -20.51171875 25.25390625 C-27.64971309 31.86280684 -34.82436103 38.43202775 -42 45 C-42.66 44.01 -43.32 43.02 -44 42 C-43.34 42 -42.68 42 -42 42 C-41.773125 41.443125 -41.54625 40.88625 -41.3125 40.3125 C-39.62449964 37.33840412 -37.53323483 35.27991135 -35 33 C-34.34 33 -33.68 33 -33 33 C-32.731875 32.360625 -32.46375 31.72125 -32.1875 31.0625 C-31 29 -31 29 -28 28 C-27.319375 27.319375 -26.63875 26.63875 -25.9375 25.9375 C-25.298125 25.298125 -24.65875 24.65875 -24 24 C-23.34 24 -22.68 24 -22 24 C-21.938125 23.21625 -21.87625 22.4325 -21.8125 21.625 C-21.544375 20.75875 -21.27625 19.8925 -21 19 C-18.625 17.75 -18.625 17.75 -16 17 C-15.01 16.67 -14.02 16.34 -13 16 C-12.87625 15.360625 -12.7525 14.72125 -12.625 14.0625 C-12.41875 13.381875 -12.2125 12.70125 -12 12 C-10.34795544 11.29788106 -8.68076231 10.63028587 -7 10 C-6.67 9.01 -6.34 8.02 -6 7 C-5.01 7 -4.02 7 -3 7 C-2.814375 6.1028125 -2.814375 6.1028125 -2.625 5.1875 C-2 3 -2 3 0 0 Z " fill="#49A591" transform="translate(140,46)"/>
<path d="M0 0 C0.99 0.33 1.98 0.66 3 1 C0.71584679 3.17470605 -1.57850911 5.33833245 -3.875 7.5 C-4.85146484 8.43005859 -4.85146484 8.43005859 -5.84765625 9.37890625 C-6.47285156 9.96542969 -7.09804687 10.55195312 -7.7421875 11.15625 C-8.3182373 11.70087891 -8.89428711 12.24550781 -9.48779297 12.80664062 C-11 14 -11 14 -13 14 C-13 52.61 -13 91.22 -13 131 C-13.33 131 -13.66 131 -14 131 C-14.02333875 115.64925625 -14.04098399 100.29851331 -14.05181217 84.94775581 C-14.05697305 77.82047051 -14.0640118 70.69319621 -14.07543945 63.56591797 C-14.08645401 56.69302134 -14.09227764 49.82013619 -14.09487724 42.94723129 C-14.09673081 40.3196787 -14.10035013 37.69212675 -14.10573006 35.06457901 C-14.11294542 31.39606602 -14.11399073 27.72760093 -14.11352539 24.05908203 C-14.11712067 22.96288544 -14.12071594 21.86668884 -14.12442017 20.73727417 C-14.1230455 19.74165466 -14.12167084 18.74603516 -14.12025452 17.72024536 C-14.12117631 16.85191637 -14.1220981 15.98358738 -14.12304783 15.08894539 C-14 13 -14 13 -13 11 C-12.01 11 -11.02 11 -10 11 C-9.835 10.29875 -9.67 9.5975 -9.5 8.875 C-7.36925522 4.7910725 -4.0707443 2.14419403 0 0 Z " fill="#43A18B" transform="translate(85,99)"/>
<path d="M0 0 C0 0.66 0 1.32 0 2 C2.31 2.66 4.62 3.32 7 4 C7 4.99 7 5.98 7 7 C6.01 7.33 5.02 7.66 4 8 C3.34 7.01 2.68 6.02 2 5 C-0.50060109 4.5224433 -0.50060109 4.5224433 -3.45947266 4.56762695 C-4.60050446 4.54783279 -5.74153625 4.52803864 -6.91714478 4.50764465 C-8.15362762 4.50125473 -9.39011047 4.49486481 -10.6640625 4.48828125 C-12.5575795 4.46135445 -12.5575795 4.46135445 -14.48934937 4.43388367 C-17.84642143 4.38879765 -21.20312448 4.35655055 -24.56036377 4.33044434 C-27.98569073 4.30067385 -31.41078481 4.25413165 -34.8359375 4.20898438 C-41.55718453 4.1238168 -48.27844661 4.05556225 -55 4 C-55 3.34 -55 2.68 -55 2 C-53.3142688 1.96241577 -53.3142688 1.96241577 -51.59448242 1.92407227 C-47.37677952 1.82903981 -43.15920514 1.72906364 -38.94165039 1.62768555 C-37.12527498 1.58469537 -35.30886841 1.54299962 -33.49243164 1.50268555 C-20.31631794 1.24434595 -20.31631794 1.24434595 -7.18481445 0.19897461 C-4.77981098 -0.02005297 -2.41363053 -0.03164981 0 0 Z " fill="#CDF1EB" transform="translate(174,150)"/>
<path d="M0 0 C0 0.99 0 1.98 0 3 C-0.99 3.66 -1.98 4.32 -3 5 C-4.04892238 6.63631892 -5.04906703 8.30485863 -6 10 C-6.99 11.485 -6.99 11.485 -8 13 C-9.32 13 -10.64 13 -12 13 C-12 50.95 -12 88.9 -12 128 C-12.33 128 -12.66 128 -13 128 C-13.21064447 113.03126577 -13.36914476 98.06264677 -13.46630955 83.09274387 C-13.51263352 76.14115795 -13.57573647 69.19049515 -13.67895508 62.23950195 C-13.77856144 55.52854197 -13.8305904 48.81873783 -13.85389519 42.10700798 C-13.87049776 39.5492845 -13.90292014 36.99161221 -13.95157051 34.43429756 C-14.01712248 30.84511083 -14.02589343 27.25985708 -14.02172852 23.67016602 C-14.054086 22.61783783 -14.08644348 21.56550964 -14.11978149 20.48129272 C-14.04356227 14.39203758 -13.00642432 11.35687819 -8.68614197 6.95811462 C-5.90326802 4.47678252 -3.00519842 2.20510198 0 0 Z " fill="#C5F1E7" transform="translate(86,101)"/>
<path d="M0 0 C0.66 0.33 1.32 0.66 2 1 C2 4.45655357 1.55807562 4.92416423 -0.625 7.4375 C-1.11226562 8.01371094 -1.59953125 8.58992188 -2.1015625 9.18359375 C-4 11 -4 11 -6.8671875 12.875 C-11.25303998 15.84994233 -14.59336627 19.60245824 -18.21875 23.44140625 C-22.30102486 27.19686978 -26.87272978 29.03957315 -32 31 C-31.32582031 30.32710937 -30.65164062 29.65421875 -29.95703125 28.9609375 C-27.80164031 26.8063047 -25.6553495 24.64289257 -23.51171875 22.4765625 C-11.42188333 10.28622709 -11.42188333 10.28622709 -5.51953125 5.296875 C-3.57189919 3.63462861 -1.77253163 1.84638711 0 0 Z " fill="#38A38D" transform="translate(76,91)"/>
<path d="M0 0 C4.46346083 3.06315939 8.20686538 6.11090811 12 10 C12.94309078 10.95663666 13.88712873 11.91234032 14.83203125 12.8671875 C15.31607422 13.35646729 15.80011719 13.84574707 16.29882812 14.34985352 C20.68794832 18.77224608 25.09743368 23.09039903 29.84375 27.1328125 C32.78206688 29.67722458 35.63904144 32.30673831 38.5 34.9375 C39.04140625 35.43515869 39.5828125 35.93281738 40.140625 36.44555664 C41.4277549 37.6296415 42.71397579 38.81471435 44 40 C43.01 40.33 42.02 40.66 41 41 C40.236875 40.195625 39.47375 39.39125 38.6875 38.5625 C36.20569102 35.83200976 36.20569102 35.83200976 33 35 C32.195625 34.030625 31.39125 33.06125 30.5625 32.0625 C28.32386073 29.38705307 27.1749837 28.17591989 24 27 C24 26.34 24 25.68 24 25 C23.10664203 22.64214682 23.10664203 22.64214682 19.9375 21.875 C18.968125 21.58625 17.99875 21.2975 17 21 C17 20.01 17 19.02 17 18 C16.01 18 15.02 18 14 18 C13.67 16.68 13.34 15.36 13 14 C12.34 14 11.68 14 11 14 C11 13.34 11 12.68 11 12 C10.34 12 9.68 12 9 12 C9 11.34 9 10.68 9 10 C6.525 9.01 6.525 9.01 4 8 C4 7.34 4 6.68 4 6 C3.34 6 2.68 6 2 6 C2 5.34 2 4.68 2 4 C1.34 3.67 0.68 3.34 0 3 C0 2.01 0 1.02 0 0 Z " fill="#CEF0EB" transform="translate(153,51)"/>
<path d="M0 0 C0.61875 0.804375 1.2375 1.60875 1.875 2.4375 C4.37183935 5.44839451 5.03882649 5.89552462 8.875 6.3125 C12.7048659 5.92951341 13.60387997 4.90957432 16 2 C16.66 1.34 17.32 0.68 18 0 C18.66 0.99 19.32 1.98 20 3 C20.99 2.67 21.98 2.34 23 2 C22.09447999 5.25987205 21.06692589 6.93483532 18.625 9.3125 C13.49554668 11.70034896 8.5757121 11.83297987 3 11 C-0.32539428 9.3792196 -1.67548407 8.664485 -3.3125 5.3125 C-3.539375 4.549375 -3.76625 3.78625 -4 3 C-3.01 2.67 -2.02 2.34 -1 2 C-0.67 1.34 -0.34 0.68 0 0 Z " fill="#242422" transform="translate(194,323)"/>
<path d="M0 0 C1.32 0.66 2.64 1.32 4 2 C3.67 2.99 3.34 3.98 3 5 C1.66666667 5.33333333 0.33333333 5.66666667 -1 6 C-5.46307948 9.20426219 -10.22959137 12.68877411 -12 18 C-14.05094501 19.73519218 -16.09160398 21.34822153 -18.25 22.9375 C-19.40135207 23.80036722 -20.55239796 24.66364316 -21.703125 25.52734375 C-22.26193359 25.93968262 -22.82074219 26.35202148 -23.39648438 26.77685547 C-24.89084635 27.91673877 -26.316413 29.14527931 -27.734375 30.37890625 C-28.85585937 31.18134766 -28.85585937 31.18134766 -30 32 C-30.99 31.67 -31.98 31.34 -33 31 C-24.75420214 23.25013003 -16.50604725 15.50407062 -8.16333008 7.85839844 C-5.37741056 5.29912845 -2.65287361 2.69708817 0 0 Z " fill="#CAEEE6" transform="translate(146,45)"/>
<path d="M0 0 C-0.33 1.65 -0.66 3.3 -1 5 C-1.80824219 4.95359375 -2.61648437 4.9071875 -3.44921875 4.859375 C-10.09156493 4.45210876 -10.09156493 4.45210876 -16 7 C-16.66 7.66 -17.32 8.32 -18 9 C-19.32 9 -20.64 9 -22 9 C-23.81115956 10.81115956 -23.38199448 13.61278227 -23.5625 16.0625 C-23.64628906 17.16722656 -23.73007813 18.27195312 -23.81640625 19.41015625 C-23.87699219 20.26480469 -23.93757812 21.11945313 -24 22 C-24.33 22 -24.66 22 -25 22 C-26.03212151 9.28961475 -26.03212151 9.28961475 -22.4375 4.875 C-16.13085874 -1.06326268 -8.15515107 -2.71838369 0 0 Z " fill="#272726" transform="translate(168,302)"/>
<path d="M0 0 C2.24995732 4.49991465 2.24995732 4.49991465 2.23377991 8.11209106 C2.23508408 8.92245819 2.23638824 9.73282532 2.23773193 10.56774902 C2.22897034 11.44789673 2.22020874 12.32804443 2.21118164 13.23486328 C2.2098674 14.16857758 2.20855316 15.10229187 2.2071991 16.06430054 C2.20070923 19.14974102 2.18027958 22.23493347 2.16015625 25.3203125 C2.15388654 27.4621453 2.14864622 29.60398134 2.14439392 31.74581909 C2.13108779 37.38394481 2.1066498 43.02196232 2.07904053 48.66003418 C2.03592431 57.69216487 2.00625303 66.72432551 1.9829998 75.75652695 C1.97274651 78.91748766 1.95570073 82.07836162 1.93800354 85.23928833 C1.93117829 87.16750002 1.9245695 89.09571249 1.91821289 91.02392578 C1.91147552 91.90812195 1.90473816 92.79231812 1.89779663 93.70330811 C1.76043618 97.98654607 1.76043618 97.98654607 3 102 C2.9129796 103.71233688 2.75902838 105.42175406 2.5625 107.125 C2.40974609 108.49011719 2.40974609 108.49011719 2.25390625 109.8828125 C2.12822266 110.93082031 2.12822266 110.93082031 2 112 C1.34 112 0.68 112 0 112 C0 75.04 0 38.08 0 0 Z " fill="#359983" transform="translate(60,126)"/>
<path d="M0 0 C12.65845399 9.14047174 12.65845399 9.14047174 13.5625 14.0625 C12.86463014 17.70693151 12.05623277 18.90889337 9 21 C4.89222251 21.50299316 3.49124017 21.32749345 0 19 C0 18.34 0 17.68 0 17 C-0.639375 16.71125 -1.27875 16.4225 -1.9375 16.125 C-4 15 -4 15 -5 13 C-3.35 13 -1.7 13 0 13 C0.66 14.32 1.32 15.64 2 17 C3.66611905 17.042721 5.33382885 17.04063832 7 17 C8.31534788 15.89350443 8.31534788 15.89350443 8.3125 13.125 C8.34984953 9.90395714 8.34984953 9.90395714 6 8.25 C5.34 7.8375 4.68 7.425 4 7 C4 6.34 4 5.68 4 5 C3.01 5 2.02 5 1 5 C0.67 3.35 0.34 1.7 0 0 Z " fill="#3AA68C" transform="translate(255,127)"/>
<path d="M0 0 C0 5.96853856 -3.95790193 10.16508175 -7.9375 14.25 C-11.67051972 17.83730705 -15.05699104 20.35233035 -20 22 C-20.33 22.99 -20.66 23.98 -21 25 C-23.89558441 26.4477922 -25.74188938 27 -29 27 C-26.54921238 24.65863048 -24.08817454 22.32832922 -21.625 20 C-20.92632812 19.33226563 -20.22765625 18.66453125 -19.5078125 17.9765625 C-18.8375 17.34492187 -18.1671875 16.71328125 -17.4765625 16.0625 C-16.85861816 15.47597656 -16.24067383 14.88945313 -15.60400391 14.28515625 C-14 13 -14 13 -12 13 C-12 12.34 -12 11.68 -12 11 C-11.34 11 -10.68 11 -10 11 C-10 10.34 -10 9.68 -10 9 C-8.3203125 7.34375 -8.3203125 7.34375 -6.125 5.5 C-4.00964496 3.71066742 -1.95980876 1.95980876 0 0 Z " fill="#44A894" transform="translate(116,54)"/>
<path d="M0 0 C0.33 0.66 0.66 1.32 1 2 C-3.60869565 7.76086957 -3.60869565 7.76086957 -6.25 9.375 C-9.13111657 12.05032253 -8.74926025 15.17621885 -9 19 C-4.06916908 17.86211594 -1.381916 16.75768445 2 13 C2.66 13 3.32 13 4 13 C4.33 12.01 4.66 11.02 5 10 C6.65 9.67 8.3 9.34 10 9 C0.56593253 20.60858656 0.56593253 20.60858656 -5.6875 21.5625 C-9 21 -9 21 -10.9375 19.375 C-12.41953717 16.06221103 -12.76440971 14.61357317 -12 11 C-8.55110468 6.70314932 -4.4415807 3.23114992 0 0 Z " fill="#54A795" transform="translate(38,127)"/>
<path d="M0 0 C2.4375 0.375 2.4375 0.375 5 1 C5.33 1.66 5.66 2.32 6 3 C6.99 3.66 7.98 4.32 9 5 C8.67 5.66 8.34 6.32 8 7 C9.32 7 10.64 7 12 7 C14.125 9.4375 14.125 9.4375 16 12 C16.66 12.33 17.32 12.66 18 13 C18 13.66 18 14.32 18 15 C19.65 15.66 21.3 16.32 23 17 C23 17.99 23 18.98 23 20 C23.61875 20.04125 24.2375 20.0825 24.875 20.125 C25.57625 20.41375 26.2775 20.7025 27 21 C28.25 24.0625 28.25 24.0625 29 27 C23.21687855 23.02612325 18.35986063 18.48053901 13.46484375 13.46484375 C10.66667903 10.66667903 7.73342109 8.09791565 4.69140625 5.5703125 C2.85496258 3.86534632 1.44520621 2.04185098 0 0 Z " fill="#4FA896" transform="translate(168,64)"/>
<path d="M0 0 C0.33 0.66 0.66 1.32 1 2 C-0.20885656 4.70783868 -1.14898793 6.74802686 -3 9 C-4.98356483 9.71408334 -6.98315437 10.38617742 -9 11 C-9.268125 11.763125 -9.53625 12.52625 -9.8125 13.3125 C-11.49834638 17.12783655 -14.16096511 17.99829918 -17.80859375 19.7890625 C-19.9534267 20.97426431 -21.37118831 22.18788153 -23 24 C-23.66 23.67 -24.32 23.34 -25 23 C-22.33562335 20.4767373 -19.66807299 17.95685345 -17 15.4375 C-16.25621094 14.73302734 -15.51242188 14.02855469 -14.74609375 13.30273438 C-9.92540984 8.7545239 -5.02199103 4.32496741 0 0 Z " fill="#C6ECE5" transform="translate(112,77)"/>
<path d="M0 0 C0 4.95 0 9.9 0 15 C-0.33 15 -0.66 15 -1 15 C-1.495 10.05 -1.495 10.05 -2 5 C-2.8971875 5.8971875 -2.8971875 5.8971875 -3.8125 6.8125 C-4.8953125 7.8953125 -4.8953125 7.8953125 -6 9 C-6.7115625 9.7734375 -6.7115625 9.7734375 -7.4375 10.5625 C-9.44686402 12.4111149 -11.64017372 13.62800798 -14 15 C-16.00580329 16.32458708 -18.00715862 17.6559907 -20 19 C-20.66 18.67 -21.32 18.34 -22 18 C-20.04709472 16.16056628 -18.08818082 14.32840869 -16.125 12.5 C-15.29162109 11.71302734 -15.29162109 11.71302734 -14.44140625 10.91015625 C-10.2265625 7 -10.2265625 7 -8 7 C-7.7525 6.401875 -7.505 5.80375 -7.25 5.1875 C-5.55294333 2.21765083 -3.56508774 0 0 0 Z " fill="#CEEFE9" transform="translate(58,129)"/>
<path d="M0 0 C0.33 0.99 0.66 1.98 1 3 C2.65 2.67 4.3 2.34 6 2 C5.67 6.29 5.34 10.58 5 15 C4.01 14.67 3.02 14.34 2 14 C2 16.97 2 19.94 2 23 C1.34 23.33 0.68 23.66 0 24 C0 16.08 0 8.16 0 0 Z " fill="#F9F9F7" transform="translate(137,308)"/>
<path d="M0 0 C4.03645882 -0.31658501 6.32333195 -0.4210379 9.8125 1.75 C11.84464159 3.84020278 12.724099 5.448198 14 8 C14.61101562 8.29777344 15.22203125 8.59554687 15.8515625 8.90234375 C18.24068371 10.1229675 19.56234919 11.41809522 21.3125 13.4375 C21.84488281 14.03433594 22.37726563 14.63117187 22.92578125 15.24609375 C23.45751953 16.11427734 23.45751953 16.11427734 24 17 C23.67 17.99 23.34 18.98 23 20 C18.16694605 15.94692017 13.60349357 11.76879475 9.27734375 7.16796875 C8.67019531 6.53503906 8.06304687 5.90210938 7.4375 5.25 C6.87933594 4.65703125 6.32117188 4.0640625 5.74609375 3.453125 C3.82566122 1.85491269 2.44010671 1.40579455 0 1 C0 0.67 0 0.34 0 0 Z " fill="#46A895" transform="translate(144,44)"/>
<path d="M0 0 C3.875 1.75 3.875 1.75 5 4 C35.195 4.495 35.195 4.495 66 5 C66 5.33 66 5.66 66 6 C57.98530167 6.04635629 49.97065943 6.08188589 41.95586014 6.10362434 C38.2341971 6.11405811 34.51262584 6.12820982 30.79101562 6.15087891 C27.19893238 6.1726219 23.60693737 6.18457169 20.0147934 6.18975449 C18.64487062 6.19344764 17.27495262 6.20065945 15.90506744 6.21146011 C13.98526221 6.22599349 12.06536804 6.22681708 10.14550781 6.22705078 C9.05296692 6.231492 7.96042603 6.23593323 6.83477783 6.24050903 C4.02617009 6.00222033 2.38358455 5.45414413 0 4 C0 2.68 0 1.36 0 0 Z " fill="#CCF1EB" transform="translate(163,239)"/>
<path d="M0 0 C0.495 1.98 0.495 1.98 1 4 C-3.14645718 5.56303343 -6.49012502 6.23355278 -10.91357422 6.13525391 C-12.05430389 6.11508209 -13.19503357 6.09491028 -14.37033081 6.0741272 C-15.58616852 6.04193085 -16.80200623 6.0097345 -18.0546875 5.9765625 C-19.31137238 5.95153656 -20.56805725 5.92651062 -21.86282349 5.90072632 C-25.18715417 5.83264026 -28.51101549 5.75544513 -31.83502197 5.67376709 C-35.23360253 5.59252166 -38.63242692 5.52334475 -42.03125 5.453125 C-48.68777927 5.31316154 -55.3439524 5.16117612 -62 5 C-62 4.67 -62 4.34 -62 4 C-61.26750534 3.99413376 -60.53501068 3.98826752 -59.78031921 3.98222351 C-52.87918012 3.9243336 -45.97831888 3.85227834 -39.07750225 3.76428509 C-35.52963721 3.71954618 -31.98188792 3.68029829 -28.43383789 3.65356445 C-24.35533459 3.62259374 -20.27745455 3.56780395 -16.19921875 3.51171875 C-14.28661507 3.50213387 -14.28661507 3.50213387 -12.33537292 3.49235535 C-11.15437515 3.47256119 -9.97337738 3.45276703 -8.7565918 3.43237305 C-7.19439156 3.41571846 -7.19439156 3.41571846 -5.60063171 3.39872742 C-2.67778345 2.95059794 -1.78087636 2.30061342 0 0 Z " fill="#C8F1E8" transform="translate(128,240)"/>
<path d="M0 0 C5.27655244 3.70481342 9.87887489 7.70201059 14.3359375 12.36328125 C15.91775222 14.08735872 15.91775222 14.08735872 18 15 C18 15.66 18 16.32 18 17 C20.97 17.66 23.94 18.32 27 19 C27 19.33 27 19.66 27 20 C24.03 20 21.06 20 18 20 C18 19.34 18 18.68 18 18 C17.34 18 16.68 18 16 18 C16 17.34 16 16.68 16 16 C15.34 16 14.68 16 14 16 C14 15.34 14 14.68 14 14 C13.4225 13.71125 12.845 13.4225 12.25 13.125 C10.16666667 12.08333333 8.08333333 11.04166667 6 10 C6 9.01 6 8.02 6 7 C4.02 6.34 2.04 5.68 0 5 C0 3.35 0 1.7 0 0 Z " fill="#C8EEE7" transform="translate(237,129)"/>
<path d="M0 0 C2.97 0.495 2.97 0.495 6 1 C6.0825 1.61875 6.165 2.2375 6.25 2.875 C6.81258459 5.18437567 6.81258459 5.18437567 9.0625 6.25 C9.701875 6.4975 10.34125 6.745 11 7 C11 7.66 11 8.32 11 9 C11.58265625 9.09410156 12.1653125 9.18820313 12.765625 9.28515625 C15.49893336 10.15962379 16.75839814 11.39057587 18.75 13.4375 C19.36359375 14.05496094 19.9771875 14.67242187 20.609375 15.30859375 C22 17 22 17 22 19 C22.66 19.33 23.32 19.66 24 20 C23.34 20.33 22.68 20.66 22 21 C16.72426767 16.49432798 11.59697854 11.83064715 6.5 7.125 C5.86433105 6.54145752 5.22866211 5.95791504 4.57373047 5.35668945 C3.0294854 3.92539176 1.51201941 2.46529971 0 1 C0 0.67 0 0.34 0 0 Z " fill="#3E9E8A" transform="translate(197,91)"/>
<path d="M0 0 C2.1875 -0.375 2.1875 -0.375 5 0 C6.73223664 1.94348501 8.39881603 3.94720004 10 6 C12.14980497 7.37254588 12.14980497 7.37254588 14 8 C14 8.99 14 9.98 14 11 C14.99 11 15.98 11 17 11 C16.34 12.32 15.68 13.64 15 15 C14.50371094 14.49210937 14.00742188 13.98421875 13.49609375 13.4609375 C10.10159538 10.02135091 6.70111769 6.67325536 3 3.5625 C2.01 2.716875 1.02 1.87125 0 1 C0 0.67 0 0.34 0 0 Z " fill="#B9E9E0" transform="translate(176,53)"/>
<path d="M0 0 C3.07792716 1.74693163 5.56068493 3.44452707 8 6 C8.66 6.33 9.32 6.66 10 7 C10 7.66 10 8.32 10 9 C10.99 9 11.98 9 13 9 C13 9.99 13 10.98 13 12 C14.32 12.33 15.64 12.66 17 13 C16.34 14.32 15.68 15.64 15 17 C13.24884832 15.41792503 11.49905722 13.83438771 9.75 12.25 C8.77546875 11.36828125 7.8009375 10.4865625 6.796875 9.578125 C5.87390625 8.72734375 4.9509375 7.8765625 4 7 C3.22140625 6.29359375 2.4428125 5.5871875 1.640625 4.859375 C0 3 0 3 0 0 Z " fill="#CEF0EA" transform="translate(160,36)"/>
<path d="M0 0 C0.66 0.33 1.32 0.66 2 1 C2.32152515 4.53677664 2.4131192 6.3962104 0.375 9.375 C-2.66363906 11.45406883 -4.38449608 11.46155369 -8 11 C-8.99 10.34 -9.98 9.68 -11 9 C-11 8.34 -11 7.68 -11 7 C-11.9590625 6.566875 -11.9590625 6.566875 -12.9375 6.125 C-15 5 -15 5 -16 3 C-13.625 2.875 -13.625 2.875 -11 3 C-9 5 -9 5 -9 8 C-6.03 8 -3.06 8 0 8 C0 5.36 0 2.72 0 0 Z " fill="#5DA894" transform="translate(266,137)"/>
<path d="M0 0 C0.99 0.99 1.98 1.98 3 3 C3.99 2.67 4.98 2.34 6 2 C5.01387981 5.55003269 4.08032022 6.93395893 1.1875 9.3125 C-1.97385369 10.98615784 -3.50989741 11.4106003 -7 11 C-5.68 10.67 -4.36 10.34 -3 10 C-3.66 8.68 -4.32 7.36 -5 6 C-4.360625 5.38125 -3.72125 4.7625 -3.0625 4.125 C-0.96116416 2.17402388 -0.96116416 2.17402388 0 0 Z " fill="#262625" transform="translate(211,323)"/>
<path d="M0 0 C0 0.66 0 1.32 0 2 C-1.50390625 3.48046875 -1.50390625 3.48046875 -3.5625 5.1875 C-7.58675247 8.60201725 -11.32190005 12.21845349 -15 16 C-15.66 15.67 -16.32 15.34 -17 15 C-13.49435106 9.33702864 -7.45455453 0 0 0 Z " fill="#359C87" transform="translate(93,79)"/>
<path d="M0 0 C5.06846623 1.24488644 7.96616487 4.21327696 11.5625 7.875 C10.5725 8.205 9.5825 8.535 8.5625 8.875 C7.9025 8.545 7.2425 8.215 6.5625 7.875 C6.5625 7.215 6.5625 6.555 6.5625 5.875 C4.26647646 4.42935555 2.92637543 3.85584866 0.1875 4 C-3.11531892 5.10093964 -5.6251824 6.84751522 -8.4375 8.875 C-9.0975 8.545 -9.7575 8.215 -10.4375 7.875 C-7.27620328 4.10834859 -4.86420465 1.23816118 0 0 Z " fill="#52A897" transform="translate(146.4375,28.125)"/>
<path d="M0 0 C2.625 0.375 2.625 0.375 5 1 C5.625 3.375 5.625 3.375 6 6 C5.34 6.66 4.68 7.32 4 8 C1.375 7.625 1.375 7.625 -1 7 C-1.625 4.625 -1.625 4.625 -2 2 C-1.34 1.34 -0.68 0.68 0 0 Z " fill="#464644" transform="translate(131,289)"/>
<path d="M0 0 C0.33 0 0.66 0 1 0 C1.9048936 4.75069141 2.14986824 9.41363585 2.25 14.25 C2.28867188 16.05210937 2.28867188 16.05210937 2.328125 17.890625 C2 21 2 21 0.83984375 22.91015625 C-1.74666987 24.44229489 -3.70622497 24.29272147 -6.6875 24.1875 C-8.17830078 24.14689453 -8.17830078 24.14689453 -9.69921875 24.10546875 C-10.45847656 24.07066406 -11.21773438 24.03585938 -12 24 C-12 23.67 -12 23.34 -12 23 C-11.38511719 22.93941406 -10.77023438 22.87882812 -10.13671875 22.81640625 C-9.32847656 22.73261719 -8.52023438 22.64882812 -7.6875 22.5625 C-6.88699219 22.48128906 -6.08648437 22.40007812 -5.26171875 22.31640625 C-2.83912821 22.04734307 -2.83912821 22.04734307 0 21 C0 14.07 0 7.14 0 0 Z " fill="#409F88" transform="translate(127,219)"/>
<path d="M0 0 C3.76143731 1.14606293 6.33769311 3.81395276 9 6.609375 C8.01 7.104375 8.01 7.104375 7 7.609375 C2.68421053 5.29358553 2.68421053 5.29358553 1 3.609375 C-4.14131184 3.08124151 -4.14131184 3.08124151 -8.4375 5.609375 C-8.953125 6.269375 -9.46875 6.929375 -10 7.609375 C-10.99 7.279375 -11.98 6.949375 -13 6.609375 C-9.08948573 2.50333501 -5.89643363 -0.41459299 0 0 Z " fill="#CFF1EB" transform="translate(149,26.390625)"/>
<path d="M0 0 C2.86724686 0.57344937 3.8614515 0.8614515 6 3 C3.69 3.66 1.38 4.32 -1 5 C-1.33 13.25 -1.66 21.5 -2 30 C-2.33 30 -2.66 30 -3 30 C-3.08708752 25.7501291 -3.14042181 21.50048761 -3.1875 17.25 C-3.21263672 16.0434375 -3.23777344 14.836875 -3.26367188 13.59375 C-3.27333984 12.43359375 -3.28300781 11.2734375 -3.29296875 10.078125 C-3.3086792 9.00981445 -3.32438965 7.94150391 -3.34057617 6.84082031 C-2.96029894 3.66884478 -2.12893092 2.32782758 0 0 Z " fill="#F7F6F6" transform="translate(176,297)"/>
<path d="M0 0 C0.99 0.33 1.98 0.66 3 1 C1.73232923 2.29477062 0.46073776 3.58570339 -0.8125 4.875 C-1.52019531 5.59429687 -2.22789063 6.31359375 -2.95703125 7.0546875 C-5.50792041 9.48364123 -7.09495409 10.95790484 -10.6875 11.125 C-11.8321875 11.063125 -11.8321875 11.063125 -13 11 C-12.236875 10.401875 -11.47375 9.80375 -10.6875 9.1875 C-8.08664741 7.15995888 -8.08664741 7.15995888 -6.3125 5.25 C-5 4 -5 4 -3 4 C-2.67 3.01 -2.34 2.02 -2 1 C-1.34 0.67 -0.68 0.34 0 0 Z " fill="#45A18E" transform="translate(45,136)"/>
<path d="M0 0 C0.99 0.33 1.98 0.66 3 1 C0.20482229 3.87988007 -2.65445048 6.67564715 -5.625 9.375 C-6.19476563 9.89835937 -6.76453125 10.42171875 -7.3515625 10.9609375 C-7.89554687 11.30382812 -8.43953125 11.64671875 -9 12 C-9.99 11.67 -10.98 11.34 -12 11 C-8.04 7.37 -4.08 3.74 0 0 Z " fill="#D0F1EA" transform="translate(125,65)"/>
<path d="M0 0 C0 4.02197773 -1.2932859 5.07959795 -4 8 C-5.95851344 9.39355764 -7.95127113 10.74282547 -10 12 C-10.66 11.67 -11.32 11.34 -12 11 C-4.88610478 2.3690205 -4.88610478 2.3690205 0 0 Z " fill="#359C88" transform="translate(128,45)"/>
<path d="M0 0 C2.97 0.99 5.94 1.98 9 3 C9 3.99 9 4.98 9 6 C11.475 6.99 11.475 6.99 14 8 C12.02 8.99 12.02 8.99 10 10 C8.33037631 8.52417192 6.6643694 7.04425109 5 5.5625 C4.071875 4.73878906 3.14375 3.91507812 2.1875 3.06640625 C1.465625 2.38449219 0.74375 1.70257813 0 1 C0 0.67 0 0.34 0 0 Z " fill="#BBE5DD" transform="translate(251,123)"/>
<path d="M0 0 C4.10447392 0.51776621 5.95699523 2.64627444 8.75 5.5625 C9.94882813 6.80193359 9.94882813 6.80193359 11.171875 8.06640625 C11.77515625 8.70449219 12.3784375 9.34257813 13 10 C12.01 10.33 11.02 10.66 10 11 C9.236875 10.21625 8.47375 9.4325 7.6875 8.625 C4.40011309 5.13550585 4.40011309 5.13550585 0 4 C0 2.68 0 1.36 0 0 Z " fill="#349784" transform="translate(242,117)"/>
<path d="M0 0 C6.36989498 0.60093349 6.36989498 0.60093349 8.875 2.1875 C10.43432705 4.69974914 10.67683438 7.09150946 11 10 C7.19364503 6.79239749 3.45436433 3.59253891 0 0 Z " fill="#BDE8E1" transform="translate(209,84)"/>
<path d="M0 0 C1.2065625 0.0309375 1.2065625 0.0309375 2.4375 0.0625 C2.81968767 1.71864657 3.15145102 3.38707024 3.4375 5.0625 C2.4375 6.0625 2.4375 6.0625 -0.125 6.125 C-1.3315625 6.0940625 -1.3315625 6.0940625 -2.5625 6.0625 C-2.94468767 4.40635343 -3.27645102 2.73792976 -3.5625 1.0625 C-2.5625 0.0625 -2.5625 0.0625 0 0 Z " fill="#1A1A17" transform="translate(177.5625,289.9375)"/>
<path d="M0 0 C1.32 0 2.64 0 4 0 C4 0.99 4 1.98 4 3 C4.721875 3.226875 5.44375 3.45375 6.1875 3.6875 C9.53209313 5.24831013 11.51603959 7.3031287 14 10 C13.67 10.99 13.34 11.98 13 13 C8.66666667 8.66666667 4.33333333 4.33333333 0 0 Z " fill="#C3EEE7" transform="translate(231,104)"/>
<path d="M0 0 C0.33 0 0.66 0 1 0 C1 2.97 1 5.94 1 9 C-3.62 9 -8.24 9 -13 9 C-12.67 8.34 -12.34 7.68 -12 7 C-9.49609375 6.5859375 -9.49609375 6.5859375 -6.4375 6.375 C-5.42558594 6.30023438 -4.41367188 6.22546875 -3.37109375 6.1484375 C-2.58863281 6.09945312 -1.80617188 6.05046875 -1 6 C-0.67 4.02 -0.34 2.04 0 0 Z " fill="#DDE9E5" transform="translate(112,219)"/>
<path d="M0 0 C3.47775179 1.51553404 5.9557984 3.5773456 8.75 6.125 C9.94882813 7.21167969 9.94882813 7.21167969 11.171875 8.3203125 C11.77515625 8.87460938 12.3784375 9.42890625 13 10 C10 11 10 11 8.17578125 10.109375 C7.25345703 9.43648437 7.25345703 9.43648437 6.3125 8.75 C5.68988281 8.31171875 5.06726563 7.8734375 4.42578125 7.421875 C3.95527344 6.95265625 3.48476562 6.4834375 3 6 C3 5.01 3 4.02 3 3 C2.01 2.67 1.02 2.34 0 2 C0 1.34 0 0.68 0 0 Z " fill="#44A18D" transform="translate(217,93)"/>
<path d="M0 0 C-4.95 0 -9.9 0 -15 0 C-15 0.99 -15 1.98 -15 3 C-17 4.6875 -17 4.6875 -19 6 C-19 2 -19 2 -17 -1 C-13.84765625 -1.58203125 -13.84765625 -1.58203125 -10.0625 -1.8125 C-8.81597656 -1.90144531 -7.56945312 -1.99039063 -6.28515625 -2.08203125 C-3 -2 -3 -2 0 0 Z " fill="#DBECEB" transform="translate(134,152)"/>
<path d="M0 0 C-3.63 3.3 -7.26 6.6 -11 10 C-11.33 9.01 -11.66 8.02 -12 7 C-11.67 6.34 -11.34 5.68 -11 5 C-10.01 5 -9.02 5 -8 5 C-8 4.01 -8 3.02 -8 2 C-3.71900826 -1.23966942 -3.71900826 -1.23966942 0 0 Z " fill="#C4F0E7" transform="translate(82,87)"/>
<path d="M0 0 C2.46855402 3.70283104 2 5.61885239 2 10 C2.91114536 13.32186171 2.91114536 13.32186171 4 16 C3.34 16.33 2.68 16.66 2 17 C0.48046875 15.94921875 0.48046875 15.94921875 -1 14 C-1.07421875 10.64453125 -1.07421875 10.64453125 -0.6875 6.8125 C-0.56761719 5.54019531 -0.44773438 4.26789063 -0.32421875 2.95703125 C-0.21722656 1.98121094 -0.11023438 1.00539062 0 0 Z " fill="#3BA893" transform="translate(167,226)"/>
<path d="M0 0 C-0.11344376 2.1464753 -0.24106345 4.29220592 -0.375 6.4375 C-0.47941406 8.22994141 -0.47941406 8.22994141 -0.5859375 10.05859375 C-0.72257813 11.02925781 -0.85921875 11.99992187 -1 13 C-1.99 13.495 -1.99 13.495 -3 14 C-3 9.71 -3 5.42 -3 1 C-1 0 -1 0 0 0 Z " fill="#E1E1DF" transform="translate(186,311)"/>
<path d="M0 0 C0.33 1.32 0.66 2.64 1 4 C-0.98 4.99 -0.98 4.99 -3 6 C-3 6.99 -3 7.98 -3 9 C-5.31 8.67 -7.62 8.34 -10 8 C-7 6 -7 6 -4.9375 5.0625 C-2.67738896 4.01748702 -2.67738896 4.01748702 -1 1 C-0.67 0.67 -0.34 0.34 0 0 Z " fill="#DEDFDB" transform="translate(139,291)"/>
<path d="M0 0 C1.27609323 0.90933009 2.54565553 1.82782853 3.8125 2.75 C4.87404297 3.51570312 4.87404297 3.51570312 5.95703125 4.296875 C8.02977691 6.02482358 9.47375854 7.78526476 11 10 C8.625 9.75 8.625 9.75 6 9 C4.6875 6.9375 4.6875 6.9375 4 5 C3.01 5 2.02 5 1 5 C0.67 3.35 0.34 1.7 0 0 Z " fill="#4EA593" transform="translate(255,127)"/>
<path d="M0 0 C6.70212766 1.93617021 6.70212766 1.93617021 9 5 C9 5.66 9 6.32 9 7 C9.66 7.33 10.32 7.66 11 8 C10.01 8.495 10.01 8.495 9 9 C7.68412059 7.87895467 6.37239647 6.75303035 5.0625 5.625 C4.33160156 4.99851562 3.60070312 4.37203125 2.84765625 3.7265625 C1 2 1 2 0 0 Z " fill="#50AA96" transform="translate(210,103)"/>
<path d="M0 0 C1.32 0 2.64 0 4 0 C2.4169423 4.2742558 -0.50568404 6.26531794 -4 9 C-4.33 8.01 -4.66 7.02 -5 6 C-4.34 6 -3.68 6 -3 6 C-2.690625 5.38125 -2.38125 4.7625 -2.0625 4.125 C-1.375 2.75 -0.6875 1.375 0 0 Z " fill="#3A9E8A" transform="translate(101,82)"/>
<path d="M0 0 C0.66 0.99 1.32 1.98 2 3 C-0.97 5.475 -0.97 5.475 -4 8 C-4 7.34 -4 6.68 -4 6 C-4.66 5.67 -5.32 5.34 -6 5 C-4.02 3.35 -2.04 1.7 0 0 Z M2 1 C4 2 4 2 4 2 Z " fill="#48AB97" transform="translate(66,101)"/>
<path d="M0 0 C0.66 0.33 1.32 0.66 2 1 C-0.21689838 5.43379675 -2.77728219 7.46636932 -7 10 C-7.66 9.67 -8.32 9.34 -9 9 C-6.03 6.03 -3.06 3.06 0 0 Z " fill="#4CA492" transform="translate(76,91)"/>
<path d="M0 0 C1.32 0.33 2.64 0.66 4 1 C4 1.99 4 2.98 4 4 C4.61875 4.28875 5.2375 4.5775 5.875 4.875 C8 6 8 6 10 8 C9.67 8.99 9.34 9.98 9 11 C7.68141572 9.73548068 6.37032369 8.46314525 5.0625 7.1875 C4.33160156 6.47980469 3.60070312 5.77210937 2.84765625 5.04296875 C1 3 1 3 0 0 Z " fill="#D0F2EE" transform="translate(195,69)"/>
<path d="M0 0 C0.99 0.33 1.98 0.66 3 1 C1.71034824 2.37562854 0.37310707 3.70766393 -1 5 C-1.66 5 -2.32 5 -3 5 C-3.28875 5.639375 -3.5775 6.27875 -3.875 6.9375 C-5 9 -5 9 -7 10 C-7 8.68 -7 7.36 -7 6 C-6.01 6 -5.02 6 -4 6 C-3.71125 5.195625 -3.4225 4.39125 -3.125 3.5625 C-2 1 -2 1 0 0 Z " fill="#BEECE2" transform="translate(135,34)"/>
<path d="M0 0 C4.29 0 8.58 0 13 0 C12.34 1.32 11.68 2.64 11 4 C9.35 4 7.7 4 6 4 C6 3.34 6 2.68 6 2 C3.03 1.505 3.03 1.505 0 1 C0 0.67 0 0.34 0 0 Z " fill="#CDCCCB" transform="translate(155,334)"/>
<path d="M0 0 C2.375 -0.125 2.375 -0.125 5 0 C7 2 7 2 7 5 C7.99 5.33 8.98 5.66 10 6 C9.01 6.33 8.02 6.66 7 7 C6.34 6.67 5.68 6.34 5 6 C5 5.34 5 4.68 5 4 C4.360625 3.71125 3.72125 3.4225 3.0625 3.125 C1 2 1 2 0 0 Z " fill="#4FA897" transform="translate(250,140)"/>
<path d="M0 0 C0.33 0.99 0.66 1.98 1 3 C-2.08632611 6.2626876 -4.93483504 9.02235218 -9 11 C-9.66 10.67 -10.32 10.34 -11 10 C-10.54109375 9.61328125 -10.0821875 9.2265625 -9.609375 8.828125 C-6.274919 5.99804049 -3.03498697 3.15638645 0 0 Z " fill="#4DA594" transform="translate(135,37)"/>
<path d="M0 0 C0.33 0.99 0.66 1.98 1 3 C-2.42388092 6.82669043 -5.00724943 8.72278474 -10 10 C-6.66666667 6.66666667 -3.33333333 3.33333333 0 0 Z " fill="#C4EBE3" transform="translate(46,138)"/>
<path d="M0 0 C1.14926266 0.95421808 2.29430541 1.91352045 3.4375 2.875 C4.07558594 3.40867187 4.71367187 3.94234375 5.37109375 4.4921875 C7 6 7 6 8 8 C6.35 8 4.7 8 3 8 C2.67 6.68 2.34 5.36 2 4 C1.34 4 0.68 4 0 4 C0 2.68 0 1.36 0 0 Z " fill="#C2EAE3" transform="translate(164,61)"/>
<path d="M0 0 C0.33 0.99 0.66 1.98 1 3 C2.65 2.67 4.3 2.34 6 2 C5.43628586 5.26954202 4.50037734 6.82575883 2 9 C0.50178941 5.62902617 0 3.79557881 0 0 Z " fill="#F2F2EF" transform="translate(137,308)"/>
<path d="M0 0 C1.8871875 0.0309375 1.8871875 0.0309375 3.8125 0.0625 C3.8125 0.3925 3.8125 0.7225 3.8125 1.0625 C2.2346875 1.2790625 2.2346875 1.2790625 0.625 1.5 C-2.34210549 1.93776966 -5.25544366 2.44054866 -8.1875 3.0625 C-6.45706736 -0.39836529 -3.47359009 -0.0569441 0 0 Z M-6.1875 3.0625 C-4.5375 3.3925 -2.8875 3.7225 -1.1875 4.0625 C-4.1875 5.5625 -4.1875 5.5625 -7.1875 7.0625 C-6.8575 5.7425 -6.5275 4.4225 -6.1875 3.0625 Z " fill="#484847" transform="translate(110.1875,300.9375)"/>
<path d="M0 0 C1.31611677 0.95336021 2.62778961 1.91285774 3.9375 2.875 C4.66839844 3.40867187 5.39929688 3.94234375 6.15234375 4.4921875 C8 6 8 6 9 8 C6.1875 7.8125 6.1875 7.8125 3 7 C1.14766715 4.59196729 0 3.07258075 0 0 Z " fill="#4FA695" transform="translate(230,104)"/>
<path d="M0 0 C-1.29299694 2.88437779 -2.65941363 4.87219421 -5 7 C-5.99 6.67 -6.98 6.34 -8 6 C-3.375 0 -3.375 0 0 0 Z " fill="#369C86" transform="translate(94,92)"/>
<path d="M0 0 C0 0.66 0 1.32 0 2 C-6.625 3.125 -6.625 3.125 -10 2 C-9.67 1.34 -9.34 0.68 -9 0 C-5.44307323 -0.85056945 -3.50729422 -1.16909807 0 0 Z " fill="#0F0F0D" transform="translate(208,331)"/>
<path d="M0 0 C0.33 0 0.66 0 1 0 C1.06058594 0.75925781 1.12117187 1.51851563 1.18359375 2.30078125 C1.26738281 3.29464844 1.35117188 4.28851563 1.4375 5.3125 C1.55931641 6.79169922 1.55931641 6.79169922 1.68359375 8.30078125 C1.91812559 11.09375599 1.91812559 11.09375599 3 14 C2.01 13.67 1.02 13.34 0 13 C-1.28571429 4.57142857 -1.28571429 4.57142857 0 0 Z " fill="#C9C8C8" transform="translate(187,314)"/>
<path d="M0 0 C2.86503068 1.2843241 5.15427705 2.41598787 7 5 C7.1875 8.1875 7.1875 8.1875 7 11 C6.6596875 10.1646875 6.6596875 10.1646875 6.3125 9.3125 C5.00796402 6.77527615 5.00796402 6.77527615 2.375 4.375 C1.59125 3.59125 0.8075 2.8075 0 2 C0 1.34 0 0.68 0 0 Z " fill="#D7F6F0" transform="translate(263,132)"/>
<path d="M0 0 C3.65316671 1.24976756 4.78065836 1.67098753 7 5 C6.67 5.99 6.34 6.98 6 8 C1.2 4.55384615 1.2 4.55384615 0.1875 1.75 C0.125625 1.1725 0.06375 0.595 0 0 Z " fill="#41A18E" transform="translate(161,56)"/>
<path d="M0 0 C2.86724686 0.57344937 3.8614515 0.8614515 6 3 C3.69 3.66 1.38 4.32 -1 5 C-1 2 -1 2 0 0 Z " fill="#F1F1F0" transform="translate(176,297)"/>
<path d="M0 0 C1.31611677 0.95336021 2.62778961 1.91285774 3.9375 2.875 C4.66839844 3.40867187 5.39929688 3.94234375 6.15234375 4.4921875 C8 6 8 6 9 8 C7.68 8.33 6.36 8.66 5 9 C4.731875 8.38125 4.46375 7.7625 4.1875 7.125 C3.04443152 4.7004767 3.04443152 4.7004767 0 3 C0 2.01 0 1.02 0 0 Z " fill="#4CA895" transform="translate(189,66)"/>
<path d="M0 0 C1.485 0.99 1.485 0.99 3 2 C3 2.99 3 3.98 3 5 C3.99 5 4.98 5 6 5 C5.34 6.32 4.68 7.64 4 9 C1.47740939 7.02579865 1.0070192 6.03254358 0.3125 2.8125 C0.209375 1.884375 0.10625 0.95625 0 0 Z " fill="#CEEBE7" transform="translate(187,59)"/>
<path d="M0 0 C0 3.57575896 -1.08840607 5.05295935 -3 8 C-4.32 7.67 -5.64 7.34 -7 7 C-4.69 4.69 -2.38 2.38 0 0 Z " fill="#4EAA97" transform="translate(116,54)"/>
<path d="M0 0 C0 4.38968456 -2.12805101 5.76905739 -5 9 C-5.99 8.67 -6.98 8.34 -8 8 C-5.33333333 5.33333333 -2.66666667 2.66666667 0 0 Z " fill="#DDF0ED" transform="translate(93,96)"/>
<path d="M0 0 C2.97 0.495 2.97 0.495 6 1 C6.33 2.98 6.66 4.96 7 7 C5.83040013 6.02433888 4.66438823 5.044375 3.5 4.0625 C2.8503125 3.51722656 2.200625 2.97195312 1.53125 2.41015625 C1.0259375 1.94480469 0.520625 1.47945313 0 1 C0 0.67 0 0.34 0 0 Z " fill="#4DA393" transform="translate(197,91)"/>
<path d="M0 0 C3.87132028 0.57352893 6.08172796 2.48704352 9 5 C8.67 5.99 8.34 6.98 8 8 C6.66372225 6.85760183 5.33104612 5.71098945 4 4.5625 C3.2575 3.92441406 2.515 3.28632812 1.75 2.62890625 C1.1725 2.09136719 0.595 1.55382812 0 1 C0 0.67 0 0.34 0 0 Z " fill="#3B9A88" transform="translate(204,82)"/>
<path d="M0 0 C2.4375 0.375 2.4375 0.375 5 1 C5.33 1.66 5.66 2.32 6 3 C6.99 3.66 7.98 4.32 9 5 C7.68 5.33 6.36 5.66 5 6 C3.35 4.02 1.7 2.04 0 0 Z " fill="#469F8E" transform="translate(168,64)"/>
<path d="M0 0 C0.99 0.33 1.98 0.66 3 1 C0.69 3.31 -1.62 5.62 -4 8 C-4.33 7.01 -4.66 6.02 -5 5 C-3.35 3.35 -1.7 1.7 0 0 Z " fill="#B8ECE2" transform="translate(123,45)"/>
<path d="M0 0 C1.32 0.33 2.64 0.66 4 1 C4 1.66 4 2.32 4 3 C6.64 3.33 9.28 3.66 12 4 C12 4.33 12 4.66 12 5 C8.8125 5.3125 8.8125 5.3125 5 5 C2.0625 2.5 2.0625 2.5 0 0 Z " fill="#B0AFAE" transform="translate(151,325)"/>
<path d="M0 0 C0.33 0.66 0.66 1.32 1 2 C0.06694014 4.71435596 -0.62673377 5.78043163 -3.125 7.25 C-3.74375 7.4975 -4.3625 7.745 -5 8 C-4.45773019 4.20411134 -2.79872437 2.52788007 0 0 Z " fill="#D0F3EC" transform="translate(112,77)"/>
<path d="M0 0 C-1.04874998 2.62187494 -1.64931313 3.79371361 -4.125 5.25 C-4.74375 5.4975 -5.3625 5.745 -6 6 C-5.6875 4.125 -5.6875 4.125 -5 2 C-2 0 -2 0 0 0 Z " fill="#399A85" transform="translate(133,56)"/>
<path d="M0 0 C1.42944945 2.35438733 2.08661261 3.48032433 1.625 6.25 C1.41875 6.8275 1.2125 7.405 1 8 C-0.65 8.33 -2.3 8.66 -4 9 C-3.525625 8.443125 -3.05125 7.88625 -2.5625 7.3125 C-0.87604004 4.81653926 -0.41046893 2.9553763 0 0 Z " fill="#BFE6DC" transform="translate(268,139)"/>
<path d="M0 0 C0.99 0.33 1.98 0.66 3 1 C-0.465 3.97 -0.465 3.97 -4 7 C-4.33 6.01 -4.66 5.02 -5 4 C-4.01 4 -3.02 4 -2 4 C-1.34 2.68 -0.68 1.36 0 0 Z " fill="#C3F1E7" transform="translate(111,56)"/>
<path d="M0 0 C0.66 0.33 1.32 0.66 2 1 C2 2.32 2 3.64 2 5 C0.35 4.67 -1.3 4.34 -3 4 C-2.01 2.68 -1.02 1.36 0 0 Z " fill="#070807" transform="translate(134,291)"/>
<path d="M0 0 C1.65 1.65 3.3 3.3 5 5 C4.01 5.33 3.02 5.66 2 6 C1.34 5.67 0.68 5.34 0 5 C0 3.35 0 1.7 0 0 Z " fill="#C0E9E2" transform="translate(243,134)"/>
<path d="M0 0 C1.65 0 3.3 0 5 0 C5.33 1.98 5.66 3.96 6 6 C3.97945196 4.35830472 1.97956942 2.69088222 0 1 C0 0.67 0 0.34 0 0 Z " fill="#AEE2D9" transform="translate(245,117)"/>
<path d="M0 0 C1.65 1.65 3.3 3.3 5 5 C3.68 5.33 2.36 5.66 1 6 C1 5.01 1 4.02 1 3 C0.01 2.67 -0.98 2.34 -2 2 C-1.34 2 -0.68 2 0 2 C0 1.34 0 0.68 0 0 Z " fill="#C5EAE1" transform="translate(206,100)"/>
</svg>
